<svg width="19" height="25" viewBox="0 0 19 25" fill="none" xmlns="http://www.w3.org/2000/svg">
<path d="M9.41355 24.75C10.7785 24.75 11.8952 23.6332 11.8952 22.2683H6.93188C6.93188 23.6332 8.03623 24.75 9.41355 24.75ZM16.8585 17.305V11.1008C16.8585 7.29143 14.8236 4.10249 11.2748 3.25873V2.41496C11.2748 1.38507 10.4434 0.553711 9.41355 0.553711C8.38366 0.553711 7.5523 1.38507 7.5523 2.41496V3.25873C3.99111 4.10249 1.96855 7.27903 1.96855 11.1008V17.305L0.367879 18.9056C-0.413846 19.6874 0.13212 21.0275 1.23646 21.0275H17.5782C18.6826 21.0275 19.2409 19.6874 18.4592 18.9056L16.8585 17.305Z" fill="#A50A1D"/>
</svg>
