<svg width="33" height="33" viewBox="0 0 33 33" fill="none" xmlns="http://www.w3.org/2000/svg">
<path d="M26.125 8.93753H24.365L23.925 7.56253C23.6398 6.75572 23.1107 6.0576 22.411 5.56488C21.7113 5.07216 20.8757 4.80923 20.02 4.81253H12.98C12.1159 4.81415 11.2741 5.0871 10.5734 5.59285C9.87277 6.09861 9.34864 6.81163 9.075 7.63128L8.635 9.00628H6.875C5.78098 9.00628 4.73177 9.44088 3.95818 10.2145C3.1846 10.9881 2.75 12.0373 2.75 13.1313V24.1313C2.75 25.2253 3.1846 26.2745 3.95818 27.0481C4.73177 27.8217 5.78098 28.2563 6.875 28.2563H26.125C27.219 28.2563 28.2682 27.8217 29.0418 27.0481C29.8154 26.2745 30.25 25.2253 30.25 24.1313V13.1313C30.2591 12.5838 30.1592 12.04 29.956 11.5316C29.7527 11.0232 29.4503 10.5603 29.0664 10.1699C28.6824 9.77957 28.2246 9.46956 27.7196 9.25797C27.2146 9.04639 26.6725 8.93745 26.125 8.93753ZM27.5 24.0625C27.5 24.4272 27.3551 24.7769 27.0973 25.0348C26.8394 25.2927 26.4897 25.4375 26.125 25.4375H6.875C6.51033 25.4375 6.16059 25.2927 5.90273 25.0348C5.64487 24.7769 5.5 24.4272 5.5 24.0625V13.0625C5.5 12.6979 5.64487 12.3481 5.90273 12.0903C6.16059 11.8324 6.51033 11.6875 6.875 11.6875H9.625C9.92484 11.7032 10.2216 11.6203 10.4698 11.4514C10.7181 11.2826 10.9043 11.0371 11 10.7525L11.7425 8.49753C11.8347 8.22443 12.0105 7.98722 12.2449 7.81944C12.4793 7.65166 12.7605 7.56179 13.0487 7.56253H20.0887C20.377 7.56179 20.6582 7.65166 20.8926 7.81944C21.127 7.98722 21.3028 8.22443 21.395 8.49753L22.1375 10.7525C22.2257 11.0148 22.391 11.2444 22.6118 11.4112C22.8326 11.578 23.0986 11.6743 23.375 11.6875H26.125C26.4897 11.6875 26.8394 11.8324 27.0973 12.0903C27.3551 12.3481 27.5 12.6979 27.5 13.0625V24.0625ZM16.5 11.6875C15.4122 11.6875 14.3488 12.0101 13.4444 12.6144C12.5399 13.2188 11.8349 14.0778 11.4187 15.0828C11.0024 16.0878 10.8935 17.1936 11.1057 18.2605C11.3179 19.3274 11.8417 20.3074 12.6109 21.0766C13.3801 21.8458 14.3601 22.3696 15.427 22.5819C16.4939 22.7941 17.5998 22.6852 18.6048 22.2689C19.6098 21.8526 20.4687 21.1476 21.0731 20.2432C21.6774 19.3387 22 18.2753 22 17.1875C22 15.7288 21.4205 14.3299 20.3891 13.2984C19.3576 12.267 17.9587 11.6875 16.5 11.6875ZM16.5 19.9375C15.9561 19.9375 15.4244 19.7762 14.9722 19.4741C14.5199 19.1719 14.1675 18.7424 13.9593 18.2399C13.7512 17.7374 13.6967 17.1845 13.8028 16.651C13.9089 16.1176 14.1709 15.6276 14.5555 15.243C14.9401 14.8584 15.4301 14.5965 15.9635 14.4904C16.4969 14.3843 17.0499 14.4387 17.5524 14.6469C18.0549 14.855 18.4844 15.2075 18.7865 15.6597C19.0887 16.1119 19.25 16.6436 19.25 17.1875C19.25 17.9169 18.9603 18.6163 18.4445 19.1321C17.9288 19.6478 17.2293 19.9375 16.5 19.9375Z" fill="white"/>
</svg>
