<svg width="20" height="20" viewBox="0 0 20 20" fill="none" xmlns="http://www.w3.org/2000/svg">
<g clip-path="url(#clip0_20_280)">
<path d="M16.446 6.0961L16.266 6.0341L16.25 5.8341C16.2059 5.29685 16.0389 4.77692 15.7619 4.31451C15.4848 3.85209 15.1052 3.45957 14.6522 3.16728C14.1993 2.875 13.6852 2.69076 13.1497 2.62883C12.6143 2.56689 12.0717 2.62892 11.564 2.8101L11.364 2.8801L11.234 2.7181C10.7911 2.1728 10.1949 1.77271 9.52244 1.5694C8.84997 1.36609 8.13202 1.36889 7.46116 1.57744C6.7903 1.786 6.1973 2.19074 5.75862 2.73948C5.31995 3.28821 5.05572 3.95578 5 4.6561L4.98 4.9241H4.712C3.94655 4.91341 3.19886 5.15497 2.58437 5.61151C1.96987 6.06804 1.52274 6.71415 1.312 7.4501C1.13718 8.0564 1.12731 8.69837 1.28341 9.30976C1.4395 9.92115 1.75592 10.4798 2.2 10.9281C2.6059 11.3249 3.15237 11.545 3.72 11.5401H16.656C17.2188 11.546 17.7613 11.33 18.166 10.9388C18.5706 10.5476 18.8049 10.0128 18.818 9.4501V9.4241C18.8187 8.69138 18.5905 7.97675 18.1652 7.38008C17.7399 6.78341 17.1388 6.3345 16.446 6.0961Z" fill="#A50A1D"/>
<path d="M16.812 5.61204C16.736 5.02129 16.5324 4.45413 16.2154 3.94988C15.8984 3.44562 15.4756 3.01633 14.9762 2.69176C14.4767 2.36719 13.9127 2.1551 13.3232 2.07019C12.7337 1.98529 12.1327 2.02959 11.562 2.20004C11.0419 1.61816 10.3665 1.1969 9.61514 0.985787C8.8638 0.774676 8.0678 0.782499 7.32076 1.00833C6.57372 1.23417 5.9067 1.66863 5.39814 2.26061C4.88958 2.8526 4.56064 3.57749 4.45 4.35004C3.60308 4.39337 2.79104 4.70106 2.12807 5.22986C1.4651 5.75866 0.984553 6.48195 0.754 7.29804C0.552642 8.00357 0.543437 8.75008 0.727335 9.46035C0.911233 10.1706 1.28156 10.8189 1.8 11.338C2.31245 11.8422 3.0031 12.124 3.722 12.122H4.56V14.2L4.094 14.438L4.15 14.238C4.01174 13.9248 3.76479 13.6721 3.45476 13.5267C3.14473 13.3813 2.79255 13.353 2.46329 13.4471C2.13403 13.5411 1.84992 13.7511 1.66344 14.0383C1.47695 14.3255 1.40069 14.6705 1.44875 15.0095C1.4968 15.3486 1.66592 15.6588 1.92486 15.8829C2.18381 16.1069 2.51509 16.2297 2.85752 16.2286C3.19994 16.2274 3.53038 16.1024 3.78781 15.8765C4.04523 15.6507 4.21224 15.3394 4.258 15L5.138 14.546V12.122H9.618V16.348C9.27137 16.3977 8.95543 16.574 8.73118 16.8429C8.50693 17.1119 8.39029 17.4544 8.40377 17.8043C8.41725 18.1542 8.55991 18.4867 8.80419 18.7376C9.04847 18.9884 9.37704 19.1399 9.72646 19.1627C10.0759 19.1855 10.4214 19.0781 10.6962 18.8611C10.971 18.6441 11.1557 18.333 11.2146 17.9878C11.2734 17.6426 11.2023 17.2879 11.0149 16.992C10.8276 16.6962 10.5372 16.4803 10.2 16.386V12.122H14.684V14.55L15.56 15C15.6036 15.3396 15.7686 15.6518 16.0244 15.8792C16.2802 16.1066 16.6097 16.2338 16.952 16.2373C17.2943 16.2408 17.6263 16.1204 17.8867 15.8982C18.1471 15.6761 18.3184 15.3672 18.3689 15.0287C18.4194 14.6901 18.3458 14.3447 18.1616 14.0562C17.9773 13.7677 17.695 13.5556 17.3666 13.459C17.0382 13.3624 16.6859 13.3879 16.3748 13.5307C16.0637 13.6735 15.8148 13.924 15.674 14.236L15.73 14.436L15.266 14.2V12.122H16.666C17.3807 12.1253 18.0681 11.8474 18.5796 11.3482C19.0912 10.849 19.3858 10.1686 19.4 9.45404V9.42404C19.4005 8.60243 19.154 7.79964 18.6925 7.11988C18.231 6.44012 17.5758 5.91478 16.812 5.61204ZM18.812 9.45004C18.7989 10.0117 18.5655 10.5456 18.1621 10.9366C17.7587 11.3277 17.2178 11.5444 16.656 11.54H3.72C3.15237 11.5449 2.6059 11.3249 2.2 10.928C1.75661 10.4793 1.44095 9.92049 1.28556 9.30912C1.13016 8.69775 1.14067 8.05599 1.316 7.45004C1.52674 6.71409 1.97387 6.06798 2.58837 5.61145C3.20286 5.15491 3.95055 4.91335 4.716 4.92404H4.986L5.006 4.65604C5.06172 3.95572 5.32595 3.28815 5.76462 2.73942C6.2033 2.19068 6.7963 1.78594 7.46716 1.57738C8.13802 1.36883 8.85597 1.36603 9.52844 1.56934C10.2009 1.77265 10.7971 2.17274 11.24 2.71804L11.37 2.88004L11.57 2.81004C12.0781 2.62985 12.6208 2.56892 13.1563 2.63196C13.6917 2.69499 14.2054 2.8803 14.6578 3.17357C15.1101 3.46683 15.489 3.8602 15.7651 4.32325C16.0412 4.7863 16.2071 5.30664 16.25 5.84404L16.266 6.04404L16.446 6.10604C17.1372 6.34389 17.7371 6.79127 18.1623 7.38595C18.5874 7.98063 18.8166 8.69303 18.818 9.42404L18.812 9.45004ZM2.848 15.65C2.68265 15.65 2.52102 15.601 2.38354 15.5091C2.24606 15.4173 2.13891 15.2867 2.07564 15.134C2.01236 14.9812 1.99581 14.8131 2.02806 14.6509C2.06032 14.4888 2.13994 14.3398 2.25686 14.2229C2.37378 14.106 2.52274 14.0264 2.6849 13.9941C2.84707 13.9618 3.01516 13.9784 3.16792 14.0417C3.32068 14.1049 3.45125 14.2121 3.54311 14.3496C3.63497 14.4871 3.684 14.6487 3.684 14.814C3.68506 15.0354 3.59828 15.2482 3.44268 15.4057C3.28708 15.5631 3.07537 15.6525 2.854 15.654L2.848 15.65ZM9.818 18.586C9.65265 18.586 9.49102 18.537 9.35354 18.4451C9.21606 18.3533 9.10891 18.2227 9.04564 18.07C8.98236 17.9172 8.96581 17.7491 8.99806 17.5869C9.03032 17.4248 9.10994 17.2758 9.22686 17.1589C9.34377 17.042 9.49274 16.9624 9.6549 16.9301C9.81707 16.8978 9.98516 16.9144 10.1379 16.9777C10.2907 17.041 10.4212 17.1481 10.5131 17.2856C10.605 17.4231 10.654 17.5847 10.654 17.75C10.654 17.9718 10.5659 18.1844 10.4091 18.3412C10.2524 18.498 10.0397 18.586 9.818 18.586ZM17.8 14.818C17.8 14.9834 17.751 15.145 17.6591 15.2825C17.5672 15.42 17.4367 15.5271 17.2839 15.5904C17.1312 15.6537 16.9631 15.6702 16.8009 15.638C16.6387 15.6057 16.4898 15.5261 16.3729 15.4092C16.2559 15.2923 16.1763 15.1433 16.1441 14.9811C16.1118 14.819 16.1284 14.6509 16.1916 14.4981C16.2549 14.3454 16.3621 14.2148 16.4995 14.1229C16.637 14.0311 16.7987 13.982 16.964 13.982C17.1857 13.982 17.3984 14.0701 17.5551 14.2269C17.7119 14.3837 17.8 14.5963 17.8 14.818Z" fill="#A50A1D"/>
</g>
<defs>
<clipPath id="clip0_20_280">
<rect width="20" height="20" fill="white"/>
</clipPath>
</defs>
</svg>
