<svg width="26" height="26" viewBox="0 0 26 26" fill="none" xmlns="http://www.w3.org/2000/svg">
<path d="M17.7473 24.207H8.25281C7.58517 24.209 6.94082 23.9618 6.44585 23.5137C5.95088 23.0657 5.64091 22.449 5.5766 21.7845L4.03902 6.36471C4.02634 6.24005 4.03998 6.11412 4.07906 5.99507C4.11814 5.87603 4.18179 5.76651 4.26589 5.67363C4.34998 5.58074 4.45265 5.50655 4.56724 5.45587C4.68183 5.40518 4.80579 5.37913 4.93109 5.3794H21.069C21.1942 5.37941 21.3181 5.40565 21.4325 5.45643C21.547 5.5072 21.6495 5.58139 21.7336 5.67422C21.8176 5.76704 21.8813 5.87644 21.9205 5.99537C21.9596 6.11429 21.9735 6.24011 21.9611 6.36471L20.4235 21.7836C20.3592 22.4482 20.0493 23.0649 19.5543 23.5131C19.0594 23.9613 18.415 24.2087 17.7473 24.207ZM5.92088 7.1725L7.36074 21.6061C7.38237 21.8275 7.48574 22.033 7.65068 22.1824C7.81562 22.3317 8.0303 22.4143 8.25281 22.4139H17.7473C17.9698 22.4143 18.1845 22.3317 18.3494 22.1824C18.5144 22.033 18.6177 21.8275 18.6394 21.6061L20.0792 7.1725H5.92088Z" fill="white"/>
<path d="M23.3103 7.1725H2.68964C2.45186 7.1725 2.22382 7.07804 2.05568 6.9099C1.88755 6.74177 1.79309 6.51373 1.79309 6.27595C1.79309 6.03817 1.88755 5.81012 2.05568 5.64199C2.22382 5.47385 2.45186 5.37939 2.68964 5.37939H23.3103C23.5481 5.37939 23.7762 5.47385 23.9443 5.64199C24.1124 5.81012 24.2069 6.03817 24.2069 6.27595C24.2069 6.51373 24.1124 6.74177 23.9443 6.9099C23.7762 7.07804 23.5481 7.1725 23.3103 7.1725ZM13 20.6208C12.7622 20.6208 12.5342 20.5263 12.366 20.3582C12.1979 20.19 12.1034 19.962 12.1034 19.7242V9.86215C12.1034 9.62437 12.1979 9.39633 12.366 9.2282C12.5342 9.06006 12.7622 8.9656 13 8.9656C13.2378 8.9656 13.4658 9.06006 13.6339 9.2282C13.8021 9.39633 13.8965 9.62437 13.8965 9.86215V19.7242C13.8965 19.962 13.8021 20.19 13.6339 20.3582C13.4658 20.5263 13.2378 20.6208 13 20.6208ZM9.86116 20.6208C9.63749 20.6206 9.42198 20.5368 9.25694 20.3858C9.09189 20.2349 8.98922 20.0277 8.96909 19.8049L8.07254 9.94284C8.05112 9.70615 8.12455 9.47064 8.27669 9.28807C8.42884 9.10549 8.64725 8.9908 8.88392 8.96919C9.12074 8.94825 9.35622 9.02195 9.53885 9.17417C9.72148 9.32639 9.8364 9.54474 9.85847 9.78146L10.755 19.6435C10.7662 19.7676 10.7515 19.8927 10.7116 20.0108C10.6718 20.1289 10.6078 20.2374 10.5237 20.3293C10.4396 20.4213 10.3372 20.4947 10.2231 20.5449C10.1091 20.5951 9.98578 20.6209 9.86116 20.6208ZM16.1388 20.6208C16.0142 20.6209 15.8909 20.5951 15.7768 20.5449C15.6628 20.4947 15.5604 20.4213 15.4763 20.3293C15.3922 20.2374 15.3282 20.1289 15.2884 20.0108C15.2485 19.8927 15.2337 19.7676 15.245 19.6435L16.1415 9.78146C16.1872 9.28836 16.6176 8.93333 17.1161 8.96919C17.3527 8.9908 17.5711 9.10549 17.7233 9.28807C17.8754 9.47064 17.9489 9.70615 17.9274 9.94284L17.0309 19.8049C17.0108 20.0277 16.9081 20.2349 16.743 20.3858C16.578 20.5368 16.3625 20.6206 16.1388 20.6208Z" fill="white"/>
<path d="M17.0345 7.17252H8.96552C8.72774 7.17252 8.4997 7.07806 8.33156 6.90993C8.16343 6.74179 8.06897 6.51375 8.06897 6.27597V2.68976C8.06897 2.45198 8.16343 2.22394 8.33156 2.05581C8.4997 1.88767 8.72774 1.79321 8.96552 1.79321H17.0345C17.2723 1.79321 17.5003 1.88767 17.6684 2.05581C17.8366 2.22394 17.931 2.45198 17.931 2.68976V6.27597C17.931 6.51375 17.8366 6.74179 17.6684 6.90993C17.5003 7.07806 17.2723 7.17252 17.0345 7.17252ZM9.86207 5.37942H16.1379V3.58632H9.86207V5.37942Z" fill="white"/>
</svg>
