<svg width="30" height="27" viewBox="0 0 30 27" fill="none" xmlns="http://www.w3.org/2000/svg">
<path fill-rule="evenodd" clip-rule="evenodd" d="M15.5 1.78309C10.1896 1.78309 5.96667 5.81865 5.96667 10.6985V23.1066C5.96667 23.2351 6.03814 23.4251 6.21021 23.5976C6.38229 23.7703 6.57184 23.8419 6.7 23.8419H10.8067C10.9687 23.8419 11.1 23.9735 11.1 24.136V25.0184C11.1 25.1809 10.9687 25.3125 10.8067 25.3125H6.7C6.09482 25.3125 5.55104 25.0165 5.17313 24.6376C4.7952 24.2587 4.5 23.7134 4.5 23.1066V10.6985C4.5 4.9185 9.47017 0.3125 15.5 0.3125C21.5298 0.3125 26.5 4.9185 26.5 10.6985V22.0772C26.5 22.2397 26.3687 22.3713 26.2067 22.3713H25.3267C25.1646 22.3713 25.0333 22.2397 25.0333 22.0772V10.6985C25.0333 5.81865 20.8104 1.78309 15.5 1.78309Z" fill="#A50A1D"/>
<path d="M25.15 22.3125C27.5525 22.3125 29.5 20.7455 29.5 18.8125C29.5 16.8795 27.5525 15.3125 25.15 15.3125V22.3125ZM4.85 22.3125C2.44757 22.3125 0.5 20.7455 0.5 18.8125C0.5 16.8795 2.44757 15.3125 4.85 15.3125V22.3125Z" fill="#A50A1D"/>
<path d="M12.5 26.3125C13.6046 26.3125 14.5 25.4171 14.5 24.3125C14.5 23.2079 13.6046 22.3125 12.5 22.3125C11.3954 22.3125 10.5 23.2079 10.5 24.3125C10.5 25.4171 11.3954 26.3125 12.5 26.3125Z" fill="#A50A1D"/>
</svg>
