<svg width="27" height="27" viewBox="0 0 27 27" fill="none" xmlns="http://www.w3.org/2000/svg">
<g clip-path="url(#clip0_20_292)">
<path d="M13.5 24.75C14.7375 24.75 15.75 23.7375 15.75 22.5H11.25C11.25 23.7375 12.2512 24.75 13.5 24.75ZM20.25 18V12.375C20.25 8.92125 18.405 6.03 15.1875 5.265V4.5C15.1875 3.56625 14.4337 2.8125 13.5 2.8125C12.5662 2.8125 11.8125 3.56625 11.8125 4.5V5.265C8.58373 6.03 6.74998 8.91 6.74998 12.375V18L5.29873 19.4513C4.58998 20.16 5.08498 21.375 6.08623 21.375H20.9025C21.9037 21.375 22.41 20.16 21.7012 19.4513L20.25 18Z" fill="#A50A1D"/>
<circle cx="17.7955" cy="7.97736" r="2.56818" fill="#A50A1D" stroke="white"/>
</g>
<defs>
<clipPath id="clip0_20_292">
<rect width="27" height="27" fill="white"/>
</clipPath>
</defs>
</svg>
