<svg width="22" height="22" viewBox="0 0 22 22" fill="none" xmlns="http://www.w3.org/2000/svg">
<path d="M11 1.83325C9.187 1.83325 7.41472 2.37087 5.90727 3.37811C4.39982 4.38536 3.22491 5.817 2.5311 7.49199C1.8373 9.16698 1.65577 11.0101 2.00947 12.7882C2.36317 14.5664 3.23621 16.1997 4.51819 17.4817C5.80017 18.7637 7.43351 19.6368 9.21167 19.9904C10.9898 20.3441 12.8329 20.1626 14.5079 19.4688C16.1829 18.775 17.6146 17.6001 18.6218 16.0926C19.629 14.5852 20.1667 12.8129 20.1667 10.9999C20.1667 9.79613 19.9296 8.60414 19.4689 7.49199C19.0082 6.37984 18.333 5.36931 17.4818 4.51811C16.6306 3.6669 15.6201 2.99169 14.5079 2.53102C13.3958 2.07035 12.2038 1.83325 11 1.83325ZM11 16.9583C10.864 16.9583 10.7311 16.9179 10.618 16.8424C10.505 16.7668 10.4169 16.6595 10.3648 16.5338C10.3128 16.4082 10.2992 16.27 10.3257 16.1366C10.3522 16.0033 10.4177 15.8808 10.5139 15.7846C10.61 15.6885 10.7325 15.623 10.8659 15.5965C10.9992 15.5699 11.1375 15.5835 11.2631 15.6356C11.3887 15.6876 11.4961 15.7757 11.5716 15.8888C11.6472 16.0019 11.6875 16.1348 11.6875 16.2708C11.6875 16.4531 11.6151 16.628 11.4861 16.7569C11.3572 16.8858 11.1823 16.9583 11 16.9583ZM12.9846 11.2841C12.5157 11.6147 12.1326 12.0526 11.8671 12.5612C11.6017 13.0698 11.4615 13.6345 11.4583 14.2083C11.4583 14.3298 11.41 14.4464 11.3241 14.5323C11.2381 14.6183 11.1216 14.6666 11 14.6666C10.8784 14.6666 10.7619 14.6183 10.6759 14.5323C10.59 14.4464 10.5417 14.3298 10.5417 14.2083C10.5455 13.4891 10.7209 12.7812 11.0533 12.1435C11.3858 11.5058 11.8656 10.9566 12.4529 10.5416C12.7874 10.3052 13.0594 9.99105 13.2455 9.62615C13.4315 9.26124 13.526 8.85656 13.5208 8.447C13.5013 7.79391 13.2335 7.17283 12.7719 6.71039C12.3103 6.24795 11.6897 5.97896 11.0367 5.95825C10.7026 5.95339 10.3708 6.01501 10.0607 6.13951C9.75063 6.26402 9.4684 6.44893 9.23042 6.6835C8.99244 6.91806 8.80347 7.1976 8.6745 7.50586C8.54553 7.81412 8.47913 8.14494 8.47917 8.47908C8.47917 8.60064 8.43088 8.71722 8.34492 8.80318C8.25897 8.88913 8.14239 8.93742 8.02083 8.93742C7.89928 8.93742 7.7827 8.88913 7.69674 8.80318C7.61079 8.71722 7.5625 8.60064 7.5625 8.47908C7.5619 8.0275 7.6504 7.58023 7.82293 7.1629C7.99547 6.74557 8.24865 6.36638 8.56797 6.04706C8.8873 5.72774 9.26648 5.47456 9.68381 5.30202C10.1011 5.12948 10.5484 5.04098 11 5.04159H11.0504C11.7754 5.05262 12.4783 5.2926 13.0586 5.7272C13.639 6.1618 14.067 6.76878 14.2816 7.46133C14.4962 8.15389 14.4863 8.89656 14.2533 9.58315C14.0204 10.2697 13.5763 10.8651 12.9846 11.2841Z" fill="#A50A1D"/>
</svg>
