<svg width="21" height="20" viewBox="0 0 21 20" fill="none" xmlns="http://www.w3.org/2000/svg">
<path fill-rule="evenodd" clip-rule="evenodd" d="M16.5091 13.3004C16.4595 13.0301 16.493 12.7513 16.6054 12.4999C16.7124 12.2534 16.8901 12.0432 17.1167 11.8952C17.3432 11.7471 17.6087 11.6677 17.8804 11.6666H17.9564C18.4042 11.6666 18.8338 11.491 19.1505 11.1784C19.4672 10.8659 19.6451 10.4419 19.6451 9.99992C19.6451 9.55789 19.4672 9.13397 19.1505 8.82141C18.8338 8.50885 18.4042 8.33325 17.9564 8.33325H17.8128C17.5411 8.33218 17.2757 8.25273 17.0491 8.10466C16.8226 7.9566 16.6449 7.74639 16.5378 7.49992V7.43325C16.4254 7.1819 16.3919 6.90309 16.4416 6.63276C16.4912 6.36243 16.6218 6.11298 16.8165 5.91658L16.8671 5.86658C17.0242 5.7118 17.1487 5.52798 17.2337 5.32565C17.3187 5.12332 17.3624 4.90644 17.3624 4.68742C17.3624 4.46839 17.3187 4.25151 17.2337 4.04918C17.1487 3.84685 17.0242 3.66304 16.8671 3.50825C16.7103 3.35329 16.5241 3.23036 16.3191 3.14649C16.114 3.06261 15.8943 3.01944 15.6724 3.01944C15.4505 3.01944 15.2307 3.06261 15.0257 3.14649C14.8207 3.23036 14.6345 3.35329 14.4776 3.50825L14.427 3.55825C14.228 3.75037 13.9752 3.87924 13.7013 3.92826C13.4274 3.97727 13.1449 3.94418 12.8902 3.83325C12.6405 3.72762 12.4275 3.55221 12.2775 3.32864C12.1275 3.10506 12.047 2.84307 12.0459 2.57492V2.49992C12.0459 2.05789 11.868 1.63397 11.5513 1.32141C11.2346 1.00885 10.805 0.833252 10.3572 0.833252C9.90928 0.833252 9.47975 1.00885 9.16306 1.32141C8.84636 1.63397 8.66844 2.05789 8.66844 2.49992V2.64159C8.66736 2.90974 8.58685 3.17173 8.43683 3.39531C8.28681 3.61888 8.07382 3.79428 7.82409 3.89992H7.75654C7.50187 4.01085 7.21936 4.04394 6.94546 3.99492C6.67155 3.94591 6.41881 3.81703 6.21981 3.62492L6.16915 3.57492C6.01231 3.41996 5.82607 3.29703 5.62106 3.21315C5.41605 3.12928 5.19631 3.08611 4.97438 3.08611C4.75246 3.08611 4.53271 3.12928 4.32771 3.21315C4.1227 3.29703 3.93645 3.41996 3.77962 3.57492C3.62261 3.72971 3.49805 3.91352 3.41307 4.11585C3.32808 4.31818 3.28434 4.53506 3.28434 4.75408C3.28434 4.97311 3.32808 5.18999 3.41307 5.39232C3.49805 5.59465 3.62261 5.77846 3.77962 5.93325L3.83028 5.98325C4.02493 6.17965 4.15551 6.4291 4.20518 6.69943C4.25484 6.96976 4.22131 7.24857 4.10892 7.49992C4.01242 7.75886 3.83922 7.98317 3.61184 8.14368C3.38446 8.30418 3.11342 8.39347 2.83394 8.39992H2.75795C2.31007 8.39992 1.88054 8.57551 1.56385 8.88807C1.24715 9.20063 1.06923 9.62456 1.06923 10.0666C1.06923 10.5086 1.24715 10.9325 1.56385 11.2451C1.88054 11.5577 2.31007 11.7333 2.75795 11.7333H2.90149C3.17319 11.7343 3.43865 11.8138 3.66518 11.9618C3.89171 12.1099 4.06943 12.3201 4.17647 12.5666C4.28886 12.8179 4.32239 13.0967 4.27273 13.3671C4.22306 13.6374 4.09248 13.8869 3.89783 14.0833L3.84717 14.1333C3.69016 14.288 3.5656 14.4719 3.48061 14.6742C3.39563 14.8765 3.35189 15.0934 3.35189 15.3124C3.35189 15.5314 3.39563 15.7483 3.48061 15.9507C3.5656 16.153 3.69016 16.3368 3.84717 16.4916C4.004 16.6465 4.19025 16.7695 4.39525 16.8533C4.60026 16.9372 4.82001 16.9804 5.04193 16.9804C5.26385 16.9804 5.4836 16.9372 5.68861 16.8533C5.89361 16.7695 6.07986 16.6465 6.2367 16.4916L6.28736 16.4416C6.48635 16.2495 6.7391 16.1206 7.01301 16.0716C7.28691 16.0226 7.56941 16.0557 7.82409 16.1666C8.08646 16.2618 8.31373 16.4328 8.47636 16.6572C8.63899 16.8816 8.72945 17.1491 8.73599 17.4249V17.4999C8.73599 17.9419 8.91391 18.3659 9.2306 18.6784C9.5473 18.991 9.97683 19.1666 10.4247 19.1666C10.8726 19.1666 11.3021 18.991 11.6188 18.6784C11.9355 18.3659 12.1134 17.9419 12.1134 17.4999V17.3582C12.1145 17.0901 12.195 16.8281 12.345 16.6045C12.4951 16.381 12.708 16.2056 12.9578 16.0999C13.2124 15.989 13.4949 15.9559 13.7689 16.0049C14.0428 16.0539 14.2955 16.1828 14.4945 16.3749L14.5452 16.4249C14.702 16.5799 14.8882 16.7028 15.0933 16.7867C15.2983 16.8706 15.518 16.9137 15.7399 16.9137C15.9619 16.9137 16.1816 16.8706 16.3866 16.7867C16.5916 16.7028 16.7779 16.5799 16.9347 16.4249C17.0917 16.2701 17.2163 16.0863 17.3012 15.884C17.3862 15.6817 17.43 15.4648 17.43 15.2458C17.43 15.0267 17.3862 14.8098 17.3012 14.6075C17.2163 14.4052 17.0917 14.2214 16.9347 14.0666L16.884 14.0166C16.6894 13.8202 16.5588 13.5707 16.5091 13.3004ZM12.8902 9.99992C12.8902 11.3806 11.7561 12.4999 10.3572 12.4999C8.95818 12.4999 7.82409 11.3806 7.82409 9.99992C7.82409 8.61921 8.95818 7.49992 10.3572 7.49992C11.7561 7.49992 12.8902 8.61921 12.8902 9.99992Z" fill="#A50A1D"/>
</svg>
