<svg width="18" height="17" viewBox="0 0 18 17" fill="none" xmlns="http://www.w3.org/2000/svg">
<path d="M8.14405 0.634343C8.41347 -0.194836 9.58653 -0.194834 9.85595 0.634346L11.2676 4.97893C11.3881 5.34975 11.7336 5.60081 12.1235 5.60081H16.6917C17.5636 5.60081 17.9261 6.71647 17.2207 7.22893L13.525 9.91403C13.2096 10.1432 13.0776 10.5494 13.198 10.9203L14.6097 15.2648C14.8791 16.094 13.9301 16.7835 13.2247 16.2711L9.52901 13.586C9.21357 13.3568 8.78643 13.3568 8.47099 13.586L4.77527 16.2711C4.06993 16.7835 3.1209 16.094 3.39031 15.2648L4.80195 10.9203C4.92244 10.5494 4.79045 10.1432 4.47501 9.91403L0.779285 7.22893C0.0739427 6.71647 0.436443 5.60081 1.30829 5.60081H5.87646C6.26636 5.60081 6.61192 5.34975 6.73241 4.97893L8.14405 0.634343Z" fill="#A50A1D"/>
</svg>
