<svg width="22" height="22" viewBox="0 0 22 22" fill="none" xmlns="http://www.w3.org/2000/svg">
<path d="M17.6 6.59999H3.85V6.04999L15.95 5.08198V6.04999H17.6V4.39998C17.6 3.18998 16.6199 2.34078 15.4231 2.51128L4.378 4.08868C3.1801 4.26029 2.2 5.38999 2.2 6.59999V17.6C2.2 18.1835 2.43179 18.743 2.84437 19.1556C3.25695 19.5682 3.81652 19.8 4.4 19.8H17.6C18.1835 19.8 18.7431 19.5682 19.1556 19.1556C19.5682 18.743 19.8 18.1835 19.8 17.6V8.79998C19.8 8.21651 19.5682 7.65693 19.1556 7.24435C18.7431 6.83177 18.1835 6.59999 17.6 6.59999ZM15.95 14.3066C15.7332 14.3065 15.5186 14.2637 15.3184 14.1807C15.1182 14.0977 14.9363 13.9761 14.783 13.8228C14.6298 13.6694 14.5083 13.4874 14.4254 13.2872C14.3425 13.0869 14.2999 12.8722 14.3 12.6555C14.3001 12.4387 14.3428 12.2241 14.4259 12.0239C14.5089 11.8237 14.6305 11.6417 14.7838 11.4885C14.9371 11.3353 15.1191 11.2138 15.3194 11.1309C15.5197 11.048 15.7343 11.0054 15.9511 11.0055C16.3889 11.0056 16.8086 11.1797 17.1181 11.4893C17.4275 11.799 17.6012 12.2188 17.6011 12.6566C17.601 13.0943 17.4269 13.5141 17.1173 13.8235C16.8076 14.133 16.3878 14.3067 15.95 14.3066Z" fill="#A50A1D"/>
</svg>
